<mxfile host="app.diagrams.net" modified="2020-11-18T20:38:24.088Z" agent="5.0 (Windows NT 10.0; Win64; x64) AppleWebKit/537.36 (KHTML, like Gecko) Chrome/86.0.4240.198 Safari/537.36" etag="WJGsziXbqWvKoueJAETe" version="13.10.0" type="github">
  <diagram id="e-ee0QmtgQHJ4ycG82sS" name="Page-1">
    <mxGraphModel dx="2062" dy="1118" grid="1" gridSize="10" guides="1" tooltips="1" connect="1" arrows="1" fold="1" page="1" pageScale="1" pageWidth="850" pageHeight="1100" math="0" shadow="0">
      <root>
        <mxCell id="0" />
        <mxCell id="1" parent="0" />
        <mxCell id="9j7n6zs5w9OX0z1cPaT8-1" value="" style="rounded=0;whiteSpace=wrap;html=1;" vertex="1" parent="1">
          <mxGeometry x="160" y="70" width="310" height="550" as="geometry" />
        </mxCell>
        <mxCell id="9j7n6zs5w9OX0z1cPaT8-2" value="" style="rounded=0;whiteSpace=wrap;html=1;fillColor=#f8cecc;strokeColor=#b85450;" vertex="1" parent="1">
          <mxGeometry x="230" y="90" width="170" height="60" as="geometry" />
        </mxCell>
        <mxCell id="9j7n6zs5w9OX0z1cPaT8-3" value="Welcome to FitForm" style="text;html=1;strokeColor=none;fillColor=none;align=center;verticalAlign=middle;whiteSpace=wrap;rounded=0;" vertex="1" parent="1">
          <mxGeometry x="277.5" y="105" width="75" height="30" as="geometry" />
        </mxCell>
        <mxCell id="9j7n6zs5w9OX0z1cPaT8-8" value="" style="rounded=1;whiteSpace=wrap;html=1;" vertex="1" parent="1">
          <mxGeometry x="227.5" y="210" width="175" height="20" as="geometry" />
        </mxCell>
        <mxCell id="9j7n6zs5w9OX0z1cPaT8-9" value="" style="rounded=1;whiteSpace=wrap;html=1;" vertex="1" parent="1">
          <mxGeometry x="225" y="300" width="180" height="20" as="geometry" />
        </mxCell>
        <mxCell id="9j7n6zs5w9OX0z1cPaT8-10" value="Email" style="text;html=1;strokeColor=none;fillColor=none;align=center;verticalAlign=middle;whiteSpace=wrap;rounded=0;" vertex="1" parent="1">
          <mxGeometry x="230" y="180" width="40" height="20" as="geometry" />
        </mxCell>
        <mxCell id="9j7n6zs5w9OX0z1cPaT8-11" value="Password" style="text;html=1;strokeColor=none;fillColor=none;align=center;verticalAlign=middle;whiteSpace=wrap;rounded=0;" vertex="1" parent="1">
          <mxGeometry x="230" y="270" width="40" height="20" as="geometry" />
        </mxCell>
        <mxCell id="9j7n6zs5w9OX0z1cPaT8-37" style="edgeStyle=orthogonalEdgeStyle;rounded=0;orthogonalLoop=1;jettySize=auto;html=1;exitX=1;exitY=0.5;exitDx=0;exitDy=0;entryX=-0.009;entryY=0.544;entryDx=0;entryDy=0;entryPerimeter=0;" edge="1" parent="1" source="9j7n6zs5w9OX0z1cPaT8-13" target="9j7n6zs5w9OX0z1cPaT8-19">
          <mxGeometry relative="1" as="geometry" />
        </mxCell>
        <mxCell id="9j7n6zs5w9OX0z1cPaT8-13" value="" style="rounded=1;whiteSpace=wrap;html=1;fillColor=#33FFFF;" vertex="1" parent="1">
          <mxGeometry x="305" y="350" width="120" height="60" as="geometry" />
        </mxCell>
        <mxCell id="9j7n6zs5w9OX0z1cPaT8-14" value="Login" style="text;html=1;strokeColor=none;fillColor=none;align=center;verticalAlign=middle;whiteSpace=wrap;rounded=0;" vertex="1" parent="1">
          <mxGeometry x="345" y="370" width="40" height="20" as="geometry" />
        </mxCell>
        <mxCell id="9j7n6zs5w9OX0z1cPaT8-15" value="Sign up" style="text;html=1;strokeColor=none;fillColor=none;align=center;verticalAlign=middle;whiteSpace=wrap;rounded=0;" vertex="1" parent="1">
          <mxGeometry x="290" y="430" width="60" height="20" as="geometry" />
        </mxCell>
        <mxCell id="9j7n6zs5w9OX0z1cPaT8-16" value="Forgot Password" style="text;html=1;strokeColor=none;fillColor=none;align=center;verticalAlign=middle;whiteSpace=wrap;rounded=0;" vertex="1" parent="1">
          <mxGeometry x="265" y="470" width="110" height="40" as="geometry" />
        </mxCell>
        <mxCell id="9j7n6zs5w9OX0z1cPaT8-19" value="" style="rounded=0;whiteSpace=wrap;html=1;" vertex="1" parent="1">
          <mxGeometry x="890" y="80" width="310" height="550" as="geometry" />
        </mxCell>
        <mxCell id="9j7n6zs5w9OX0z1cPaT8-20" value="" style="rounded=0;whiteSpace=wrap;html=1;" vertex="1" parent="1">
          <mxGeometry x="890" y="570" width="170" height="60" as="geometry" />
        </mxCell>
        <mxCell id="9j7n6zs5w9OX0z1cPaT8-21" value="" style="rounded=0;whiteSpace=wrap;html=1;fillColor=#66FFFF;" vertex="1" parent="1">
          <mxGeometry x="1040" y="570" width="160" height="60" as="geometry" />
        </mxCell>
        <mxCell id="9j7n6zs5w9OX0z1cPaT8-22" value="Exercise History" style="text;html=1;strokeColor=none;fillColor=none;align=center;verticalAlign=middle;whiteSpace=wrap;rounded=0;" vertex="1" parent="1">
          <mxGeometry x="910" y="585" width="100" height="30" as="geometry" />
        </mxCell>
        <mxCell id="9j7n6zs5w9OX0z1cPaT8-23" value="Exercise Selection" style="text;html=1;strokeColor=none;fillColor=none;align=center;verticalAlign=middle;whiteSpace=wrap;rounded=0;" vertex="1" parent="1">
          <mxGeometry x="1035" y="590" width="170" height="20" as="geometry" />
        </mxCell>
        <mxCell id="9j7n6zs5w9OX0z1cPaT8-39" style="edgeStyle=orthogonalEdgeStyle;rounded=0;orthogonalLoop=1;jettySize=auto;html=1;exitX=1;exitY=0.5;exitDx=0;exitDy=0;" edge="1" parent="1" source="9j7n6zs5w9OX0z1cPaT8-25">
          <mxGeometry relative="1" as="geometry">
            <mxPoint x="1360" y="145" as="targetPoint" />
          </mxGeometry>
        </mxCell>
        <mxCell id="9j7n6zs5w9OX0z1cPaT8-25" value="" style="rounded=0;whiteSpace=wrap;html=1;fillColor=#00FFFF;" vertex="1" parent="1">
          <mxGeometry x="890" y="120" width="310" height="50" as="geometry" />
        </mxCell>
        <mxCell id="9j7n6zs5w9OX0z1cPaT8-26" value="" style="rounded=0;whiteSpace=wrap;html=1;" vertex="1" parent="1">
          <mxGeometry x="890" y="170" width="310" height="60" as="geometry" />
        </mxCell>
        <mxCell id="9j7n6zs5w9OX0z1cPaT8-27" value="" style="rounded=0;whiteSpace=wrap;html=1;" vertex="1" parent="1">
          <mxGeometry x="890" y="230" width="310" height="50" as="geometry" />
        </mxCell>
        <mxCell id="9j7n6zs5w9OX0z1cPaT8-28" value="Date" style="text;html=1;strokeColor=none;fillColor=none;align=center;verticalAlign=middle;whiteSpace=wrap;rounded=0;" vertex="1" parent="1">
          <mxGeometry x="980" y="90" width="130" height="20" as="geometry" />
        </mxCell>
        <mxCell id="9j7n6zs5w9OX0z1cPaT8-30" value="Dumbell Curl" style="text;html=1;strokeColor=none;fillColor=none;align=center;verticalAlign=middle;whiteSpace=wrap;rounded=0;" vertex="1" parent="1">
          <mxGeometry x="930" y="130" width="230" height="30" as="geometry" />
        </mxCell>
        <mxCell id="9j7n6zs5w9OX0z1cPaT8-32" value="Sit up" style="text;html=1;strokeColor=none;fillColor=none;align=center;verticalAlign=middle;whiteSpace=wrap;rounded=0;" vertex="1" parent="1">
          <mxGeometry x="930" y="190" width="230" height="30" as="geometry" />
        </mxCell>
        <mxCell id="9j7n6zs5w9OX0z1cPaT8-33" value="Squats" style="text;html=1;strokeColor=none;fillColor=none;align=center;verticalAlign=middle;whiteSpace=wrap;rounded=0;" vertex="1" parent="1">
          <mxGeometry x="920" y="240" width="230" height="30" as="geometry" />
        </mxCell>
        <mxCell id="9j7n6zs5w9OX0z1cPaT8-35" value="" style="rounded=0;whiteSpace=wrap;html=1;" vertex="1" parent="1">
          <mxGeometry x="890" y="280" width="310" height="50" as="geometry" />
        </mxCell>
        <mxCell id="9j7n6zs5w9OX0z1cPaT8-36" value="Push Up" style="text;html=1;strokeColor=none;fillColor=none;align=center;verticalAlign=middle;whiteSpace=wrap;rounded=0;" vertex="1" parent="1">
          <mxGeometry x="960" y="297.5" width="150" height="15" as="geometry" />
        </mxCell>
        <mxCell id="9j7n6zs5w9OX0z1cPaT8-40" value="" style="rounded=0;whiteSpace=wrap;html=1;" vertex="1" parent="1">
          <mxGeometry x="1360" y="70" width="310" height="550" as="geometry" />
        </mxCell>
        <mxCell id="9j7n6zs5w9OX0z1cPaT8-51" style="edgeStyle=orthogonalEdgeStyle;rounded=0;orthogonalLoop=1;jettySize=auto;html=1;exitX=1;exitY=0.5;exitDx=0;exitDy=0;" edge="1" parent="1" source="9j7n6zs5w9OX0z1cPaT8-42" target="9j7n6zs5w9OX0z1cPaT8-49">
          <mxGeometry relative="1" as="geometry" />
        </mxCell>
        <mxCell id="9j7n6zs5w9OX0z1cPaT8-42" value="" style="rounded=0;whiteSpace=wrap;html=1;" vertex="1" parent="1">
          <mxGeometry x="1360" y="70" width="310" height="50" as="geometry" />
        </mxCell>
        <mxCell id="9j7n6zs5w9OX0z1cPaT8-43" value="" style="rounded=0;whiteSpace=wrap;html=1;" vertex="1" parent="1">
          <mxGeometry x="1360" y="170" width="310" height="50" as="geometry" />
        </mxCell>
        <mxCell id="9j7n6zs5w9OX0z1cPaT8-44" value="" style="rounded=0;whiteSpace=wrap;html=1;" vertex="1" parent="1">
          <mxGeometry x="1360" y="120" width="310" height="50" as="geometry" />
        </mxCell>
        <mxCell id="9j7n6zs5w9OX0z1cPaT8-45" value="Left Handed Dumbell Curlt" style="text;html=1;strokeColor=none;fillColor=none;align=center;verticalAlign=middle;whiteSpace=wrap;rounded=0;" vertex="1" parent="1">
          <mxGeometry x="1440" y="87.5" width="160" height="15" as="geometry" />
        </mxCell>
        <mxCell id="9j7n6zs5w9OX0z1cPaT8-46" value="Both Dumbell Curt" style="text;html=1;strokeColor=none;fillColor=none;align=center;verticalAlign=middle;whiteSpace=wrap;rounded=0;" vertex="1" parent="1">
          <mxGeometry x="1440" y="185" width="160" height="15" as="geometry" />
        </mxCell>
        <mxCell id="9j7n6zs5w9OX0z1cPaT8-47" value="Right Handed Dumbell Curl" style="text;html=1;strokeColor=none;fillColor=none;align=center;verticalAlign=middle;whiteSpace=wrap;rounded=0;" vertex="1" parent="1">
          <mxGeometry x="1450" y="137.5" width="160" height="15" as="geometry" />
        </mxCell>
        <mxCell id="9j7n6zs5w9OX0z1cPaT8-49" value="" style="rounded=0;whiteSpace=wrap;html=1;" vertex="1" parent="1">
          <mxGeometry x="1870" y="80" width="310" height="550" as="geometry" />
        </mxCell>
        <mxCell id="9j7n6zs5w9OX0z1cPaT8-52" value="Wear the bands as such!" style="text;html=1;strokeColor=none;fillColor=none;align=center;verticalAlign=middle;whiteSpace=wrap;rounded=0;" vertex="1" parent="1">
          <mxGeometry x="1950" y="110" width="150" height="130" as="geometry" />
        </mxCell>
      </root>
    </mxGraphModel>
  </diagram>
</mxfile>
